<svg xmlns="http://www.w3.org/2000/svg" fill="none" viewBox="0 0 24 24">
  <rect width="24" height="24" rx="6" fill="#fff"/>
  <circle cx="7.5" cy="16.5" r="4" fill="#000"/>
  <path d="M10.614 4.9c.455-.788.682-1.181.98-1.314a1 1 0 01.813 0c.297.133.524.526.979 1.314l1.992 3.45c.454.788.682 1.181.648 1.505a1 1 0 01-.407.704c-.263.191-.718.191-1.627.191h-3.984c-.91 0-1.364 0-1.627-.191a1 1 0 01-.407-.704c-.034-.324.194-.717.649-1.505l1.991-3.45z" fill="#000"/>
  <rect x="13" y="13" width="7" height="7" rx="1.5" fill="#000"/>
</svg>
