<svg xmlns="http://www.w3.org/2000/svg" fill="none" viewBox="0 0 24 24">
  <path fill-rule="evenodd" clip-rule="evenodd" d="M24 9.6c0-3.36 0-5.04-.654-6.324A6 6 0 0020.724.654C19.44 0 17.76 0 14.4 0H9.6C6.24 0 4.56 0 3.276.654A6 6 0 00.654 3.276C0 4.56 0 6.24 0 9.6v4.8c0 3.36 0 5.04.654 6.324a6 6 0 002.622 2.622C4.56 24 6.24 24 9.6 24h4.8c3.36 0 5.04 0 6.324-.654a6 6 0 002.622-2.622C24 19.44 24 17.76 24 14.4V9.6zm-8.623-1.25L13.386 4.9c-.455-.788-.682-1.181-.98-1.314a1 1 0 00-.813 0c-.297.133-.524.526-.979 1.314L8.622 8.35c-.454.788-.682 1.181-.648 1.505a1 1 0 00.407.704c.263.191.718.191 1.627.191h3.984c.91 0 1.364 0 1.627-.191a1 1 0 00.407-.704c.034-.324-.194-.717-.649-1.505zM11.5 16.5a4 4 0 11-8 0 4 4 0 018 0zm6.1-3.5h-2.2c-.84 0-1.26 0-1.581.164a1.5 1.5 0 00-.655.655c-.164.32-.164.74-.164 1.581v2.2c0 .84 0 1.26.164 1.581a1.5 1.5 0 00.655.655c.32.164.74.164 1.581.164h2.2c.84 0 1.26 0 1.581-.163a1.5 1.5 0 00.655-.656c.164-.32.164-.74.164-1.581v-2.2c0-.84 0-1.26-.163-1.581a1.5 1.5 0 00-.656-.655C18.861 13 18.441 13 17.6 13z" fill="#fff"/>
</svg>
