<svg xmlns="http://www.w3.org/2000/svg" fill="none" viewBox="0 0 32 32">
  <g filter="url(#JXkMuZjHLa)">
    <path d="M20.415 2.336a1 1 0 00-.707-.293H6.439a1.4 1.4 0 00-1.4 1.4v25.114a1.4 1.4 0 001.4 1.4h19.122a1.4 1.4 0 001.4-1.4V9.297a1 1 0 00-.293-.708l-6.253-6.253z" fill="url(#JXkMuZjHLb)"/>
  </g>
  <g filter="url(#JXkMuZjHLc)">
    <path d="M19.751 2.457c0-.201.058-.33-.052-.352.104.007.256.045.352.083.123.048-.03.155.067.249a.254.254 0 01.009.008l6.253 6.253a1.009 1.009 0 01.293.708v.063c0-.232-.168-.371-.293-.371h-5.429a1.2 1.2 0 01-1.2-1.2V2.457z" fill="#D2C5DF"/>
  </g>
  <g filter="url(#JXkMuZjHLd)">
    <path d="M20.04 2.348c0-.202-.159-.282-.269-.303a1 1 0 01.644.29l6.253 6.254a1.013 1.013 0 01.244.4 1 1 0 01.049.307v.063c0-.232-.168-.37-.293-.37h-5.429a1.2 1.2 0 01-1.2-1.2V2.347z" fill="url(#JXkMuZjHLe)"/>
  </g>
  <path d="M20.04 2.348c0-.202-.159-.282-.269-.303a1 1 0 01.644.29l6.253 6.254a1.013 1.013 0 01.244.4 1 1 0 01.049.307v.063c0-.232-.168-.37-.293-.37h-5.429a1.2 1.2 0 01-1.2-1.2V2.347z" fill="url(#JXkMuZjHLf)"/>
  <rect x="9.039" y="11.996" width="13.914" height=".992" rx=".496" fill="url(#JXkMuZjHLg)"/>
  <rect x="9.039" y="14.996" width="13.914" height=".992" rx=".496" fill="url(#JXkMuZjHLh)"/>
  <rect x="9.039" y="17.996" width="13.914" height=".992" rx=".496" fill="url(#JXkMuZjHLi)"/>
  <rect x="9.039" y="20.996" width="8.984" height=".992" rx=".496" fill="url(#JXkMuZjHLj)"/>
  <path d="M25.073 13.498a1.5 1.5 0 012.111.209l1.95 2.378a1.5 1.5 0 01-.207 2.11l-14.138 11.6-3.854-4.698 14.138-11.598z" fill="url(#JXkMuZjHLk)"/>
  <path d="M25.073 13.498a1.5 1.5 0 012.111.209l1.95 2.378a1.5 1.5 0 01-.207 2.11l-14.138 11.6-3.854-4.698 14.138-11.598z" fill="url(#JXkMuZjHLl)"/>
  <path d="M25.073 13.498a1.5 1.5 0 012.111.209l1.95 2.378a1.5 1.5 0 01-.207 2.11l-14.138 11.6-3.854-4.698 14.138-11.598z" fill="url(#JXkMuZjHLm)"/>
  <path d="M25.073 13.498a1.5 1.5 0 012.111.209l1.95 2.378a1.5 1.5 0 01-.207 2.11l-14.138 11.6-3.854-4.698 14.138-11.598z" fill="url(#JXkMuZjHLn)"/>
  <path d="M9.843 29.794a.133.133 0 00.13.158l4.353.011a.663.663 0 00.354-.101l.109-.068-3.854-4.698-.074.074a.662.662 0 00-.183.343l-.835 4.281z" fill="url(#JXkMuZjHLo)"/>
  <path d="M9.843 29.794a.133.133 0 00.13.158l4.353.011a.663.663 0 00.354-.101l.109-.068-3.854-4.698-.074.074a.662.662 0 00-.183.343l-.835 4.281z" fill="url(#JXkMuZjHLp)"/>
  <path d="M9.843 29.794a.133.133 0 00.13.158l4.353.011a.663.663 0 00.354-.101l.109-.068-3.854-4.698-.074.074a.662.662 0 00-.183.343l-.835 4.281z" fill="url(#JXkMuZjHLq)"/>
  <path d="M27.013 19.765l2.305-1.89a.994.994 0 00.138-1.4l-2.593-3.16a.994.994 0 00-1.398-.138l-2.305 1.891 3.853 4.697z" fill="url(#JXkMuZjHLr)"/>
  <path d="M27.013 19.765l2.305-1.89a.994.994 0 00.138-1.4l-2.593-3.16a.994.994 0 00-1.398-.138l-2.305 1.891 3.853 4.697z" fill="url(#JXkMuZjHLs)"/>
  <path d="M27.013 19.765l2.305-1.89a.994.994 0 00.138-1.4l-2.593-3.16a.994.994 0 00-1.398-.138l-2.305 1.891 3.853 4.697z" fill="url(#JXkMuZjHLt)"/>
  <path d="M20.85 16.963l2.31-1.895 3.853 4.697-2.31 1.895-3.854-4.697z" fill="url(#JXkMuZjHLu)"/>
  <path d="M20.85 16.963l2.31-1.895 3.853 4.697-2.31 1.895-3.854-4.697z" fill="url(#JXkMuZjHLv)"/>
  <path d="M9.972 29.952a.133.133 0 01-.13-.158l.294-1.501 1.364 1.663-1.528-.004z" fill="url(#JXkMuZjHLw)"/>
  <defs>
    <linearGradient id="JXkMuZjHLb" x1="16" y1="2.043" x2="16" y2="30.883" gradientUnits="userSpaceOnUse">
      <stop stop-color="#E4DCEA"/>
      <stop offset="1" stop-color="#CEC1D5"/>
    </linearGradient>
    <linearGradient id="JXkMuZjHLe" x1="20.539" y1="8.707" x2="23.18" y2="6.066" gradientUnits="userSpaceOnUse">
      <stop stop-color="#CAC2CE"/>
      <stop offset="1" stop-color="#BDB4C1"/>
    </linearGradient>
    <linearGradient id="JXkMuZjHLf" x1="23.773" y1="5.551" x2="22.516" y2="6.82" gradientUnits="userSpaceOnUse">
      <stop offset=".119" stop-color="#DBDADC"/>
      <stop offset=".577" stop-color="#CBC7D0" stop-opacity="0"/>
    </linearGradient>
    <linearGradient id="JXkMuZjHLg" x1="9.039" y1="12.492" x2="22.953" y2="12.492" gradientUnits="userSpaceOnUse">
      <stop stop-color="#9C96A2"/>
      <stop offset="1" stop-color="#9A95A1"/>
    </linearGradient>
    <linearGradient id="JXkMuZjHLh" x1="9.039" y1="15.492" x2="22.953" y2="15.492" gradientUnits="userSpaceOnUse">
      <stop stop-color="#9C96A2"/>
      <stop offset="1" stop-color="#9A95A1"/>
    </linearGradient>
    <linearGradient id="JXkMuZjHLi" x1="9.039" y1="18.492" x2="22.953" y2="18.492" gradientUnits="userSpaceOnUse">
      <stop stop-color="#9C96A2"/>
      <stop offset="1" stop-color="#9A95A1"/>
    </linearGradient>
    <linearGradient id="JXkMuZjHLj" x1="9.039" y1="21.492" x2="18.023" y2="21.492" gradientUnits="userSpaceOnUse">
      <stop stop-color="#9C96A2"/>
      <stop offset="1" stop-color="#9A95A1"/>
    </linearGradient>
    <linearGradient id="JXkMuZjHLl" x1="16.154" y1="20.493" x2="17.087" y2="21.584" gradientUnits="userSpaceOnUse">
      <stop stop-color="#EE9B6A"/>
      <stop offset="1" stop-color="#EE9B6A" stop-opacity="0"/>
    </linearGradient>
    <linearGradient id="JXkMuZjHLm" x1="22.841" y1="23.566" x2="21.707" y2="22.414" gradientUnits="userSpaceOnUse">
      <stop stop-color="#E66A62"/>
      <stop offset="1" stop-color="#E66A62" stop-opacity="0"/>
    </linearGradient>
    <linearGradient id="JXkMuZjHLo" x1="11.304" y1="27.483" x2="12.766" y2="30.373" gradientUnits="userSpaceOnUse">
      <stop stop-color="#D8A587"/>
      <stop offset="1" stop-color="#CE7A98"/>
    </linearGradient>
    <linearGradient id="JXkMuZjHLp" x1="13.331" y1="27.809" x2="12.952" y2="28.124" gradientUnits="userSpaceOnUse">
      <stop offset=".207" stop-color="#FFC09F"/>
      <stop offset="1" stop-color="#FCB196" stop-opacity="0"/>
    </linearGradient>
    <linearGradient id="JXkMuZjHLq" x1="9.748" y1="27.226" x2="11.137" y2="27.487" gradientUnits="userSpaceOnUse">
      <stop stop-color="#DEBCA3"/>
      <stop offset="1" stop-color="#DEBCA3" stop-opacity="0"/>
    </linearGradient>
    <linearGradient id="JXkMuZjHLr" x1="28.628" y1="15.108" x2="25.643" y2="17.518" gradientUnits="userSpaceOnUse">
      <stop stop-color="#FF6153"/>
      <stop offset="1" stop-color="#FF6154"/>
    </linearGradient>
    <linearGradient id="JXkMuZjHLs" x1="23.831" y1="14.385" x2="25.778" y2="16.575" gradientUnits="userSpaceOnUse">
      <stop stop-color="#F1553E"/>
      <stop offset="1" stop-color="#F1553E" stop-opacity="0"/>
    </linearGradient>
    <linearGradient id="JXkMuZjHLu" x1="22.041" y1="16.081" x2="24.516" y2="18.822" gradientUnits="userSpaceOnUse">
      <stop stop-color="#C5C4CB"/>
      <stop offset="1" stop-color="#E8DEFA"/>
    </linearGradient>
    <linearGradient id="JXkMuZjHLv" x1="25.871" y1="21.119" x2="24.492" y2="19.485" gradientUnits="userSpaceOnUse">
      <stop stop-color="#C9B9E0"/>
      <stop offset="1" stop-color="#C9B9E0" stop-opacity="0"/>
    </linearGradient>
    <linearGradient id="JXkMuZjHLw" x1="10.053" y1="28.982" x2="10.657" y2="30.021" gradientUnits="userSpaceOnUse">
      <stop stop-color="#461E49"/>
      <stop offset="1" stop-color="#450F51"/>
    </linearGradient>
    <radialGradient id="JXkMuZjHLk" cx="0" cy="0" r="1" gradientUnits="userSpaceOnUse" gradientTransform="matrix(9.98063 -8.37694 5.1962 6.19096 12.835 27.572)">
      <stop stop-color="#FF9130"/>
      <stop offset="1" stop-color="#F3633D"/>
    </radialGradient>
    <radialGradient id="JXkMuZjHLn" cx="0" cy="0" r="1" gradientUnits="userSpaceOnUse" gradientTransform="matrix(9.3224 -7.60972 1.70167 2.08466 12.682 27.432)">
      <stop stop-color="#FF994D"/>
      <stop offset="1" stop-color="#FF994D" stop-opacity="0"/>
    </radialGradient>
    <radialGradient id="JXkMuZjHLt" cx="0" cy="0" r="1" gradientUnits="userSpaceOnUse" gradientTransform="matrix(-.70174 .57568 -1.30777 -1.59415 28.01 15.671)">
      <stop offset=".177" stop-color="#FF786D"/>
      <stop offset="1" stop-color="#FF786D" stop-opacity="0"/>
    </radialGradient>
    <filter id="JXkMuZjHLa" x="4.939" y="1.743" width="22.322" height="28.314" filterUnits="userSpaceOnUse" color-interpolation-filters="sRGB">
      <feFlood flood-opacity="0" result="BackgroundImageFix"/>
      <feBlend mode="normal" in="SourceGraphic" in2="BackgroundImageFix" result="shape"/>
      <feColorMatrix in="SourceAlpha" type="matrix" values="0 0 0 0 0 0 0 0 0 0 0 0 0 0 0 0 0 0 127 0" result="hardAlpha"/>
      <feOffset dx=".3" dy="-.3"/>
      <feGaussianBlur stdDeviation=".3"/>
      <feComposite in2="hardAlpha" operator="arithmetic" k2="-1" k3="1"/>
      <feColorMatrix type="matrix" values="0 0 0 0 0.807843 0 0 0 0 0.768627 0 0 0 0 0.85098 0 0 0 1 0"/>
      <feBlend mode="normal" in2="shape" result="effect1_innerShadow_18_22438"/>
      <feColorMatrix in="SourceAlpha" type="matrix" values="0 0 0 0 0 0 0 0 0 0 0 0 0 0 0 0 0 0 127 0" result="hardAlpha"/>
      <feOffset dx=".1" dy="-.1"/>
      <feGaussianBlur stdDeviation=".1"/>
      <feComposite in2="hardAlpha" operator="arithmetic" k2="-1" k3="1"/>
      <feColorMatrix type="matrix" values="0 0 0 0 0.709804 0 0 0 0 0.690196 0 0 0 0 0.733333 0 0 0 1 0"/>
      <feBlend mode="normal" in2="effect1_innerShadow_18_22438" result="effect2_innerShadow_18_22438"/>
      <feColorMatrix in="SourceAlpha" type="matrix" values="0 0 0 0 0 0 0 0 0 0 0 0 0 0 0 0 0 0 127 0" result="hardAlpha"/>
      <feOffset dy="-.1"/>
      <feGaussianBlur stdDeviation=".1"/>
      <feComposite in2="hardAlpha" operator="arithmetic" k2="-1" k3="1"/>
      <feColorMatrix type="matrix" values="0 0 0 0 0.72549 0 0 0 0 0.65098 0 0 0 0 0.8 0 0 0 1 0"/>
      <feBlend mode="normal" in2="effect2_innerShadow_18_22438" result="effect3_innerShadow_18_22438"/>
      <feColorMatrix in="SourceAlpha" type="matrix" values="0 0 0 0 0 0 0 0 0 0 0 0 0 0 0 0 0 0 127 0" result="hardAlpha"/>
      <feOffset dx="-.15" dy=".15"/>
      <feGaussianBlur stdDeviation=".05"/>
      <feComposite in2="hardAlpha" operator="arithmetic" k2="-1" k3="1"/>
      <feColorMatrix type="matrix" values="0 0 0 0 0.952941 0 0 0 0 0.941176 0 0 0 0 0.964706 0 0 0 1 0"/>
      <feBlend mode="normal" in2="effect3_innerShadow_18_22438" result="effect4_innerShadow_18_22438"/>
    </filter>
    <filter id="JXkMuZjHLc" x="19.199" y="1.605" width="7.974" height="8.363" filterUnits="userSpaceOnUse" color-interpolation-filters="sRGB">
      <feFlood flood-opacity="0" result="BackgroundImageFix"/>
      <feBlend mode="normal" in="SourceGraphic" in2="BackgroundImageFix" result="shape"/>
      <feGaussianBlur stdDeviation=".25" result="effect1_foregroundBlur_18_22438"/>
    </filter>
    <filter id="JXkMuZjHLd" x="19.771" y="1.945" width="7.29" height="7.414" filterUnits="userSpaceOnUse" color-interpolation-filters="sRGB">
      <feFlood flood-opacity="0" result="BackgroundImageFix"/>
      <feBlend mode="normal" in="SourceGraphic" in2="BackgroundImageFix" result="shape"/>
      <feColorMatrix in="SourceAlpha" type="matrix" values="0 0 0 0 0 0 0 0 0 0 0 0 0 0 0 0 0 0 127 0" result="hardAlpha"/>
      <feOffset dx=".1"/>
      <feGaussianBlur stdDeviation=".075"/>
      <feComposite in2="hardAlpha" operator="arithmetic" k2="-1" k3="1"/>
      <feColorMatrix type="matrix" values="0 0 0 0 0.631373 0 0 0 0 0.611765 0 0 0 0 0.654902 0 0 0 1 0"/>
      <feBlend mode="normal" in2="shape" result="effect1_innerShadow_18_22438"/>
      <feColorMatrix in="SourceAlpha" type="matrix" values="0 0 0 0 0 0 0 0 0 0 0 0 0 0 0 0 0 0 127 0" result="hardAlpha"/>
      <feOffset dy="-.1"/>
      <feGaussianBlur stdDeviation=".075"/>
      <feComposite in2="hardAlpha" operator="arithmetic" k2="-1" k3="1"/>
      <feColorMatrix type="matrix" values="0 0 0 0 0.752941 0 0 0 0 0.67451 0 0 0 0 0.835294 0 0 0 1 0"/>
      <feBlend mode="normal" in2="effect1_innerShadow_18_22438" result="effect2_innerShadow_18_22438"/>
    </filter>
  </defs>
</svg>
